# xmcd
#
# Track frame offsets:
#	150
#	10950
#	20605
#	32919
#	44379
#	57942
#	72804
#	84491
#	98815
#	111339
#	126247
#	136878
#	149909
#	159933
#	170798
#	182341
#	191256
#	203751
#	212496
#	226270
#
# Disc length: 3128 seconds
#
# Revision: 0
# Processed by: cddbd v1.5.2PL0 Copyright (c) Steve Scherf et al.
# Submitted via: dBpowerAMP V4.0
#
DISCID=170c3614
DTITLE=Willie Nelson - ... At his best
DYEAR=2002
DGENRE=Country
TTITLE0=01 A new way to cry
TTITLE1=02 Ashamed
TTITLE2=03 Country Willie
TTITLE3=04 December Day
TTITLE4=05 A moment isn't very long
TTITLE5=06 And so will you my love
TTITLE6=07 I hope so
TTITLE7=08 I let my mind Wander
TTITLE8=09 Any old arms won't do
TTITLE9=10 Face of a fighter
TTITLE10=11 I feel sorry for him
TTITLE11=12 I just don't understand
TTITLE12=13 Pride wins again
TTITLE13=14 Go away
TTITLE14=15 I'll stay around
TTITLE15=16 Right from wrong
TTITLE16=17 She's not for you
TTITLE17=18 Why are you picking on me
TTITLE18=19 Will you remember mine
TTITLE19=20 You wouldn't cross the street to say goodbye
EXTD=
EXTT0=
EXTT1=
EXTT2=
EXTT3=
EXTT4=
EXTT5=
EXTT6=
EXTT7=
EXTT8=
EXTT9=
EXTT10=
EXTT11=
EXTT12=
EXTT13=
EXTT14=
EXTT15=
EXTT16=
EXTT17=
EXTT18=
EXTT19=
PLAYORDER=
